<?xml version="1.0" encoding="UTF-8" standalone="no"?>
<!-- Created with Inkscape (http://www.inkscape.org/) -->

<svg
   xmlns:dc="http://purl.org/dc/elements/1.1/"
   xmlns:cc="http://creativecommons.org/ns#"
   xmlns:rdf="http://www.w3.org/1999/02/22-rdf-syntax-ns#"
   xmlns:svg="http://www.w3.org/2000/svg"
   xmlns="http://www.w3.org/2000/svg"
   xmlns:sodipodi="http://sodipodi.sourceforge.net/DTD/sodipodi-0.dtd"
   xmlns:inkscape="http://www.inkscape.org/namespaces/inkscape"
   width="744.09448819"
   height="1052.3622047"
   id="svg2"
   version="1.1"
   inkscape:version="0.48.2 r9819"
   sodipodi:docname="drawing_013.svg">
  <defs
     id="defs4" />
  <sodipodi:namedview
     id="base"
     pagecolor="#ffffff"
     bordercolor="#666666"
     borderopacity="1.0"
     inkscape:pageopacity="0.0"
     inkscape:pageshadow="2"
     inkscape:zoom="0.70710678"
     inkscape:cx="432.31148"
     inkscape:cy="639.51223"
     inkscape:document-units="px"
     inkscape:current-layer="layer1"
     showgrid="false"
     inkscape:window-width="901"
     inkscape:window-height="808"
     inkscape:window-x="849"
     inkscape:window-y="140"
     inkscape:window-maximized="0" />
  <metadata
     id="metadata7">
    <rdf:RDF>
      <cc:Work
         rdf:about="">
        <dc:format>image/svg+xml</dc:format>
        <dc:type
           rdf:resource="http://purl.org/dc/dcmitype/StillImage" />
        <dc:title></dc:title>
      </cc:Work>
    </rdf:RDF>
  </metadata>
  <g
     inkscape:label="Layer 1"
     inkscape:groupmode="layer"
     id="layer1">
    <g
       id="g3885"
       transform="translate(24.041631,-2.8284271)">
      <path
         sodipodi:nodetypes="zzzzz"
         inkscape:connector-curvature="0"
         id="path3087"
         d="m 645.83341,443.04862 c 0,144.96924 -97.35035,262.49008 -298.80258,262.49008 -201.45224,0 -298.802611,-117.52084 -298.802611,-262.49008 0,-144.96924 108.278841,-283.43624 298.802611,-283.43624 190.52375,0 298.80258,138.467 298.80258,283.43624 z"
         style="fill:#232323;fill-opacity:1;stroke:none" />
      <path
         sodipodi:nodetypes="zssssssssscz"
         inkscape:connector-curvature="0"
         id="path3975"
         d="m 188.87313,198.6218 c 71.84333,-40.75615 77.75368,-43.39156 99.02965,-55.61236 65.10339,-37.39504 88.60549,-91.664321 96.33306,-91.664321 7.72758,0 13.8744,32.88984 14.26783,49.162671 0.47481,19.63782 -1.47792,24.90267 -0.32198,26.08056 2.19306,2.23473 14.97218,-3.21983 23.98768,-10.9474 9.0155,-7.72757 17.61583,-16.011248 21.49231,-15.93812 4.26627,0.08037 16.54023,26.18957 17.95051,42.98463 1.7709,21.08983 0.60409,31.23312 2.61609,35.05583 1.60991,3.05883 8.19046,4.55803 24.20907,12.16487 16.39135,7.78383 -122.93685,83.82606 -122.93685,83.82606 0,0 -248.4707,-34.35627 -176.62737,-75.11242 z"
         style="fill:#232323;fill-opacity:1;stroke:none" />
      <path
         sodipodi:nodetypes="zssszssssssszz"
         inkscape:connector-curvature="0"
         id="path4058-6"
         d="m 211.5414,663.25423 c 18.15171,7.89459 64.73888,24.09836 135.52433,24.09836 188.03437,0 278.8366,-109.71501 278.8366,-245.02847 0,-69.59064 -26.81169,-137.46228 -77.0006,-187.04324 -11.9772,-11.83212 -23.99595,-23.25296 -37.3273,-20.36811 -13.33135,2.88484 -25.51045,31.50331 -37.32573,50.84749 -11.81527,19.34418 -25.21365,39.8784 -39.8453,61.17662 -14.63164,21.29822 -30.47118,43.40766 -47.41188,65.76487 -16.94069,22.35721 -34.9481,45.01461 -53.69053,67.53577 -18.74243,22.52117 -38.24194,44.86024 -58.27879,66.65032 -10.01841,10.89503 -20.1804,21.65377 -30.42732,32.19823 -10.24691,10.54445 -20.57881,20.90883 -30.99079,30.99079 -10.41197,10.08195 -25.0496,21.93832 -24.56299,31.43164 0.48661,9.49333 4.34859,13.85114 22.5003,21.74573 z"
         style="fill:#ffffff;stroke:none" />
      <path
         inkscape:connector-curvature="0"
         id="path3087-0-3-0"
         d="m 347.06701,177.81654 c -177.83384,0 -278.917098,129.19493 -278.917098,264.5084 0,84.3748 35.353798,158.78023 107.542058,202.8488 10.61303,6.4789 22.00005,12.28203 34.21062,17.38704 -16.66266,-7.42079 -20.37769,-11.90754 -20.84835,-21.08983 -0.48661,-9.49333 14.13916,-21.31131 24.55114,-31.39327 10.41198,-10.08196 20.74387,-20.44634 30.99079,-30.99079 10.24692,-10.54445 20.40891,-21.30319 30.42732,-32.19822 20.03685,-21.79008 39.53635,-44.12916 58.27878,-66.65032 18.74243,-22.52117 36.74984,-45.17857 53.69054,-67.53577 16.9407,-22.35721 32.78024,-44.46665 47.41188,-65.76487 14.63165,-21.29823 28.03002,-41.83245 39.8453,-61.17663 11.81528,-19.34417 24.01859,-47.98836 37.34994,-50.87319 8.3321,-1.80302 16.12925,1.98797 23.74619,7.96906 -8.24687,-7.04265 -17.0189,-13.65014 -26.32205,-19.72141 -43.15898,-28.16574 -97.40763,-45.319 -161.95706,-45.319 z m 188.27911,65.04041 c 0.98125,0.77052 1.92265,1.65921 2.89784,2.49536 -0.96157,-0.84665 -1.92128,-1.6614 -2.89784,-2.49536 z m 89.26957,173.46793 c 0.20787,2.15318 0.40732,4.36005 0.56347,6.52014 -0.15713,-2.17465 -0.35405,-4.35248 -0.56347,-6.52014 z M 280.01422,682.1212 c 2.61202,0.42543 5.22724,0.83298 7.88856,1.20744 -2.70756,-0.37902 -5.3041,-0.79028 -7.88856,-1.20744 z m 7.88856,1.20744 c 6.78813,0.9551 13.65838,1.79949 20.76785,2.41486 -7.27159,-0.63629 -14.20866,-1.49673 -20.76785,-2.41486 z"
         style="fill:#232323;fill-opacity:1;stroke:none" />
      <path
         sodipodi:nodetypes="zszsz"
         inkscape:connector-curvature="0"
         id="rect4214"
         d="m 347.01194,424.95482 c 54.76998,0.0471 127.72613,38.16827 127.72613,60.07854 0,28.28518 -60.46705,42.48944 -127.72613,42.48944 -67.25907,0 -127.72615,-14.20426 -127.72615,-42.48944 0,-28.28519 72.95618,-60.12567 127.72615,-60.07854 z"
         style="fill:#232323;fill-opacity:1;stroke:none" />
      <path
         sodipodi:nodetypes="zsszsz"
         inkscape:connector-curvature="0"
         id="rect4214-3"
         d="m 347.01138,438.64953 c 26.93391,-0.003 60.18615,10.99118 83.21138,23.35218 16.88284,9.06347 28.10941,19.59867 28.10982,23.36532 0.002,14.99464 -55.05875,27.80157 -111.3212,27.57389 -56.26246,-0.2277 -111.18752,-12.80719 -111.32124,-27.57389 -0.0907,-10.02451 84.38732,-46.71454 111.32124,-46.7175 z"
         style="fill:#ffffff;stroke:none" />
      <path
         sodipodi:nodetypes="zsszsz"
         inkscape:connector-curvature="0"
         id="rect4214-3-5"
         d="m 347.01135,438.64945 c -26.93392,-0.003 -60.18615,10.99118 -83.21139,23.35218 -16.88284,9.06347 -28.10941,19.59868 -28.10982,23.36533 -0.002,14.99463 55.05876,27.80157 111.32121,27.57389 56.26245,-0.22771 111.18752,-12.8072 111.32123,-27.57389 0.0907,-10.02452 -84.38731,-46.71455 -111.32123,-46.71751 z"
         style="fill:#ffffff;stroke:none" />
      <rect
         ry="18.441742"
         rx="8.6111717"
         y="470.97327"
         x="274.41248"
         height="18.441742"
         width="145.25717"
         id="rect4256"
         style="fill:#232323;fill-opacity:1;stroke:none" />
      <path
         transform="matrix(3.1566004,0,0,2.9795944,-674.19542,-948.35954)"
         d="m 282.5,449.67468 c 0,3.69341 -2.8262,6.6875 -6.3125,6.6875 -3.4863,0 -6.3125,-2.99409 -6.3125,-6.6875 0,-3.6934 2.8262,-6.6875 6.3125,-6.6875 3.4863,0 6.3125,2.9941 6.3125,6.6875 z"
         sodipodi:ry="6.6875"
         sodipodi:rx="6.3125"
         sodipodi:cy="449.67468"
         sodipodi:cx="276.1875"
         id="path4277"
         style="fill:#ffffff;fill-rule:evenodd;stroke:none"
         sodipodi:type="arc" />
      <path
         transform="matrix(3.391039,0,0,3.2008869,-441.17679,-1047.8699)"
         d="m 282.5,449.67468 c 0,3.69341 -2.8262,6.6875 -6.3125,6.6875 -3.4863,0 -6.3125,-2.99409 -6.3125,-6.6875 0,-3.6934 2.8262,-6.6875 6.3125,-6.6875 3.4863,0 6.3125,2.9941 6.3125,6.6875 z"
         sodipodi:ry="6.6875"
         sodipodi:rx="6.3125"
         sodipodi:cy="449.67468"
         sodipodi:cx="276.1875"
         id="path4277-4"
         style="fill:#232323;fill-opacity:1;fill-rule:evenodd;stroke:none"
         sodipodi:type="arc" />
    </g>
  </g>
</svg>
